<?xml version="1.0" encoding="utf-8"?>
<!-- Generator: Adobe Illustrator 26.5.2, SVG Export Plug-In . SVG Version: 6.00 Build 0)  -->
<svg version="1.0" id="Layer_1" xmlns="http://www.w3.org/2000/svg" xmlns:xlink="http://www.w3.org/1999/xlink" x="0px" y="0px"
	 viewBox="0 0 316.96 375.65" style="enable-background:new 0 0 316.96 375.65;" xml:space="preserve"
     width="40" height="40">
<style type="text/css">
	.st0{fill:#FFFFFF;stroke:#000000;stroke-width:14.1732;stroke-miterlimit:10;}
	.st1{fill:none;stroke:#000000;stroke-width:14.1732;stroke-miterlimit:10;}
</style>
<path class="st0" d="M20.87,109.52l90.24-90.24h169.26c9.67,0,17.5,7.84,17.5,17.5v301.24c0,9.67-7.84,17.5-17.5,17.5h-242
	c-9.67,0-17.5-7.84-17.5-17.5L20.87,109.52z"/>
<path class="st1" d="M18.87,109.52h87.5c4.69,0,8.5-3.81,8.5-8.5V19.28"/>
<path d="M243.52,104.83h-91.57c-3.82,0-6.91-3.09-6.91-6.91v0c0-3.82,3.09-6.91,6.91-6.91h91.57c3.82,0,6.91,3.09,6.91,6.91v0
	C250.43,101.74,247.34,104.83,243.52,104.83z"/>
<path d="M243.52,156.48H72.75c-3.82,0-6.91-3.09-6.91-6.91v0c0-3.82,3.09-6.91,6.91-6.91h170.78c3.82,0,6.91,3.09,6.91,6.91v0
	C250.43,153.39,247.34,156.48,243.52,156.48z"/>
<path d="M243.52,208.13H72.75c-3.82,0-6.91-3.09-6.91-6.91v0c0-3.82,3.09-6.91,6.91-6.91h170.78c3.82,0,6.91,3.09,6.91,6.91v0
	C250.43,205.04,247.34,208.13,243.52,208.13z"/>
<path d="M243.52,259.79H72.75c-3.82,0-6.91-3.09-6.91-6.91v0c0-3.82,3.09-6.91,6.91-6.91h170.78c3.82,0,6.91,3.09,6.91,6.91v0
	C250.43,256.69,247.34,259.79,243.52,259.79z"/>
<path d="M243.52,311.44H72.75c-3.82,0-6.91-3.09-6.91-6.91l0,0c0-3.82,3.09-6.91,6.91-6.91h170.78c3.82,0,6.91,3.09,6.91,6.91l0,0
	C250.43,308.34,247.34,311.44,243.52,311.44z"/>
</svg>
